<svg id="Layer_1" enable-background="new 0 0 64 64" height="512" viewBox="0 0 64 64" width="512" xmlns="http://www.w3.org/2000/svg"><path d="m52.077 47.587h5v15h-5z" fill="#c8c8c8" transform="matrix(.731 -.682 .682 .731 -22.907 52.02)"/><path d="m51.29 47.897-3.657 3.41-43.329-46.538c-.377-.404-.355-1.037.049-1.414l2.194-2.045c.404-.377 1.037-.355 1.413.049z" fill="#aad2ff"/><path d="m4.619 5.107 1.928-1.797c.404-.377 1.037-.355 1.413.049l42.333 45.467.997-.929-43.329-46.538c-.377-.404-1.01-.426-1.414-.049l-2.194 2.045c-.404.377-.426 1.01-.049 1.414z" fill="#bee6ff"/><path d="m55.51 58.841h7v2h-7z" fill="#aad2ff" transform="matrix(.731 -.682 .682 .731 -24.959 56.321)"/><path d="m54.552 55.794-1.463 1.364 1.364 1.463 1.463-1.364c.404-.377.426-1.009.049-1.413-.376-.405-1.009-.427-1.413-.05z" fill="#b4b4b4"/><path d="m51.824 52.868-1.463 1.364 1.364 1.463 1.463-1.364c.404-.377.426-1.009.049-1.413-.376-.404-1.009-.426-1.413-.05z" fill="#b4b4b4"/><path d="m47.634 51.807c-.006 0-.012 0-.018 0-.133-.004-.258-.062-.349-.159l-43.33-46.538c-.272-.293-.416-.675-.401-1.076.014-.4.184-.771.477-1.044l2.193-2.046c.604-.565 1.557-.53 2.12.074l43.33 46.539c.188.202.177.518-.025.707l-3.656 3.41c-.093.085-.215.133-.341.133zm-40.405-50.266c-.123 0-.245.044-.342.134l-2.193 2.046c-.097.091-.154.215-.159.348-.005.134.043.261.134.359l42.99 46.172 2.925-2.728-42.989-46.172c-.098-.106-.232-.159-.366-.159z" fill="#785ae6"/><path d="m55.51 58.841h7v2h-7z" fill="#dcdcdc" transform="matrix(.731 -.682 .682 .731 -24.959 56.321)"/><path d="m61.533 57.467-5.093 4.75.692.742 5.12-4.774z" fill="#c8c8c8"/><path d="m6.923 47.587h5v15h-5z" fill="#c8c8c8" transform="matrix(-.731 -.682 .682 -.731 -21.255 101.802)"/><path d="m9.448 55.794 1.463 1.364-1.365 1.462-1.463-1.364c-.404-.377-.426-1.009-.049-1.413.377-.404 1.01-.426 1.414-.049z" fill="#b4b4b4"/><path d="m12.176 52.868 1.463 1.364-1.364 1.463-1.463-1.364c-.404-.377-.426-1.009-.049-1.413.376-.404 1.009-.426 1.413-.05z" fill="#b4b4b4"/><path d="m12.71 47.897 3.657 3.41 43.33-46.538c.377-.404.355-1.037-.049-1.413l-2.195-2.046c-.404-.377-1.037-.355-1.413.049z" fill="#e678a0"/><path d="m56.039 3.359c.377-.404 1.009-.426 1.413-.049l1.928 1.798.315-.339c.377-.404.355-1.037-.049-1.413l-2.193-2.046c-.404-.377-1.037-.355-1.413.049l-43.33 46.538.997.929z" fill="#fa8cb4"/><path d="m16.366 51.807c-.126 0-.248-.048-.341-.134l-3.656-3.41c-.202-.188-.213-.504-.025-.707l43.329-46.538c.566-.605 1.518-.638 2.121-.074l2.193 2.046c.293.273.463.644.477 1.044.015.4-.129.783-.402 1.076l-43.33 46.537c-.091.097-.216.154-.349.159-.005.001-.011.001-.017.001zm-2.95-3.935 2.925 2.728 42.989-46.172c.092-.098.14-.225.135-.359-.005-.133-.062-.257-.159-.348l-2.193-2.046c-.203-.188-.521-.176-.708.025z" fill="#785ae6"/><path d="m10.038 47.602h9v4h-9z" fill="#dcdcdc" transform="matrix(-.731 -.682 .682 -.731 -8.658 95.793)"/><path d="m1.49 58.841h7v2h-7z" fill="#dcdcdc" transform="matrix(-.731 -.682 .682 -.731 -32.172 107.009)"/><path d="m2.489 57.402.628-.675-.005-.005-1.364 1.463 5.12 4.774.735-.788z" fill="#c8c8c8"/><path d="m6.868 63.459c-.122 0-.244-.044-.341-.134l-5.12-4.774c-.098-.09-.154-.216-.159-.348-.004-.133.044-.262.135-.359l1.364-1.462c.188-.201.504-.212.706-.024l.366.341 6.819-7.313-1.097-1.023c-.097-.09-.154-.216-.159-.348-.004-.133.044-.262.135-.358l2.729-2.925c.188-.202.506-.213.706-.025l6.582 6.138c.097.09.154.216.159.348.004.133-.044.262-.135.358l-2.729 2.926c-.187.203-.505.214-.706.025l-1.098-1.023-6.818 7.311.365.341c.202.188.213.505.025.707l-1.363 1.462c-.098.106-.232.159-.366.159zm-4.413-5.298 4.389 4.092.681-.731-.366-.342c-.202-.188-.213-.505-.024-.707l7.502-8.045c.09-.097.215-.154.348-.159.132-.014.261.043.358.134l1.098 1.023 2.046-2.194-5.851-5.456-2.046 2.194 1.097 1.023c.097.09.154.216.159.348.004.133-.044.262-.135.358l-7.502 8.045c-.187.203-.503.213-.706.025l-.366-.341z" fill="#785ae6"/><path d="m44.962 47.602h9v4h-9z" fill="#dcdcdc" transform="matrix(.731 -.682 .682 .731 -20.541 47.058)"/><g fill="#785ae6"><path d="m57.132 63.459c-.134 0-.268-.053-.366-.159l-1.363-1.462c-.188-.202-.177-.518.025-.707l.365-.341-6.819-7.313-1.098 1.023c-.2.188-.52.178-.706-.025l-2.729-2.926c-.091-.097-.139-.226-.135-.358.005-.132.062-.258.159-.348l6.582-6.138c.2-.188.52-.177.706.025l2.729 2.925c.091.097.139.226.135.358-.005.132-.062.258-.159.348l-1.097 1.023 6.819 7.313.366-.341c.203-.188.519-.178.706.024l1.364 1.462c.091.097.139.226.135.359-.005.132-.062.258-.159.348l-1.352 1.261-3.769 3.513c-.095.092-.217.136-.339.136zm-.656-1.938.681.731 4.389-4.092-.682-.731-.366.341c-.203.188-.52.178-.706-.025l-7.503-8.045c-.091-.097-.139-.226-.135-.358.005-.132.062-.258.159-.348l1.097-1.023-2.046-2.194-5.851 5.456 2.046 2.194 1.098-1.023c.097-.09.231-.147.358-.134.133.004.258.062.348.159l7.502 8.045c.188.202.178.518-.024.707zm4.424-2.075h.01z"/><path d="m13.295 51.677c-.122 0-.245-.044-.341-.134l-1.949-1.818c-.202-.188-.213-.505-.024-.707.188-.202.506-.212.706-.025l1.949 1.818c.202.188.213.505.024.707-.098.106-.231.159-.365.159z"/><path d="m7.5 61.314c-.122 0-.245-.044-.342-.135l-2.157-2.016c-.201-.188-.212-.505-.023-.707.189-.201.505-.213.707-.024l2.157 2.016c.201.188.212.505.023.707-.098.106-.231.159-.365.159z"/><path d="m50.779 51.608c-.134 0-.268-.053-.365-.159-.188-.202-.178-.518.024-.707l1.875-1.749c.201-.188.52-.178.706.025.188.202.178.518-.024.707l-1.875 1.749c-.096.089-.219.134-.341.134z"/><path d="m56.5 61.314c-.134 0-.268-.053-.365-.159-.188-.202-.178-.518.024-.707l1.904-1.776c.2-.188.52-.177.706.025.188.202.178.518-.024.707l-1.904 1.776c-.096.09-.219.134-.341.134z"/></g><path d="m6 20 1.414 2.586 2.586 1.414-2.586 1.414-1.414 2.586-1.414-2.586-2.586-1.414 2.586-1.414z" fill="#ffe885"/><path d="m4.586 23.586 1.414-1.586 1.414 1.586 2.586.414-2.586-1.414-1.414-2.586-1.414 2.586-2.586 1.414z" fill="#fffa96"/><path d="m6 28.5c-.183 0-.351-.1-.438-.26l-1.344-2.457-2.458-1.345c-.16-.087-.26-.255-.26-.438s.1-.351.26-.438l2.458-1.344 1.344-2.457c.176-.321.701-.321.877 0l1.344 2.457 2.458 1.344c.159.087.259.255.259.438s-.1.351-.26.438l-2.458 1.344-1.344 2.458c-.087.16-.255.26-.438.26zm-2.958-4.5 1.784.976c.084.046.152.115.198.199l.976 1.783.976-1.784c.046-.084.114-.153.198-.199l1.784-.975-1.784-.976c-.084-.046-.152-.115-.198-.199l-.976-1.783-.976 1.784c-.046.084-.114.153-.198.199z" fill="#785ae6"/><path d="m39 2 1.414 2.586 2.586 1.414-2.586 1.414-1.414 2.586-1.414-2.586-2.586-1.414 2.586-1.414z" fill="#ffe885"/><path d="m37.586 5.586 1.414-1.586 1.414 1.586 2.586.414-2.586-1.414-1.414-2.586-1.414 2.586-2.586 1.414z" fill="#fffa96"/><path d="m39 10.5c-.183 0-.351-.1-.438-.26l-1.344-2.457-2.458-1.345c-.16-.087-.26-.255-.26-.438s.1-.351.26-.438l2.458-1.344 1.344-2.457c.176-.321.701-.321.877 0l1.344 2.457 2.458 1.344c.159.087.259.255.259.438s-.1.351-.26.438l-2.458 1.344-1.344 2.457c-.087.161-.255.261-.438.261zm-2.958-4.5 1.784.976c.084.046.152.115.198.199l.976 1.783.976-1.784c.046-.084.114-.153.198-.199l1.784-.975-1.784-.976c-.084-.046-.152-.115-.198-.199l-.976-1.783-.976 1.784c-.046.084-.114.153-.198.199z" fill="#785ae6"/><path d="m58 26 1.414 2.586 2.586 1.414-2.586 1.414-1.414 2.586-1.414-2.586-2.586-1.414 2.586-1.414z" fill="#ffe885"/><path d="m56.586 29.586 1.414-1.586 1.414 1.586 2.586.414-2.586-1.414-1.414-2.586-1.414 2.586-2.586 1.414z" fill="#fffa96"/><path d="m58 34.5c-.183 0-.351-.1-.438-.26l-1.344-2.457-2.458-1.344c-.16-.088-.26-.256-.26-.439s.1-.351.26-.438l2.458-1.344 1.344-2.457c.176-.321.701-.321.877 0l1.344 2.457 2.458 1.344c.159.087.259.255.259.438s-.1.351-.26.438l-2.458 1.344-1.344 2.457c-.087.161-.255.261-.438.261zm-2.958-4.5 1.784.976c.084.046.152.115.198.199l.976 1.783.976-1.784c.046-.084.114-.153.198-.199l1.784-.975-1.784-.976c-.084-.046-.152-.115-.198-.199l-.976-1.783-.976 1.784c-.046.084-.114.153-.198.199z" fill="#785ae6"/></svg>